<mxfile host="Electron" modified="2023-08-29T19:30:04.173Z" agent="Mozilla/5.0 (Windows NT 10.0; Win64; x64) AppleWebKit/537.36 (KHTML, like Gecko) draw.io/21.6.8 Chrome/114.0.5735.289 Electron/25.5.0 Safari/537.36" etag="PIKKmW1NYOWS2qvMylDM" version="21.6.8" type="device">
  <diagram id="R2lEEEUBdFMjLlhIrx00" name="Page-1">
    <mxGraphModel dx="1036" dy="614" grid="1" gridSize="10" guides="1" tooltips="1" connect="1" arrows="1" fold="1" page="1" pageScale="1" pageWidth="850" pageHeight="1100" math="0" shadow="0" extFonts="Permanent Marker^https://fonts.googleapis.com/css?family=Permanent+Marker">
      <root>
        <mxCell id="0" />
        <mxCell id="1" parent="0" />
        <mxCell id="DNLyiLyBkiyhDNQC9Ltb-37" style="edgeStyle=orthogonalEdgeStyle;rounded=0;orthogonalLoop=1;jettySize=auto;html=1;exitX=0;exitY=0.25;exitDx=0;exitDy=0;entryX=0.5;entryY=1;entryDx=0;entryDy=0;" edge="1" parent="1" source="DNLyiLyBkiyhDNQC9Ltb-1" target="DNLyiLyBkiyhDNQC9Ltb-31">
          <mxGeometry relative="1" as="geometry" />
        </mxCell>
        <mxCell id="DNLyiLyBkiyhDNQC9Ltb-38" style="edgeStyle=orthogonalEdgeStyle;rounded=0;orthogonalLoop=1;jettySize=auto;html=1;exitX=0;exitY=0;exitDx=0;exitDy=0;entryX=1;entryY=1;entryDx=0;entryDy=0;" edge="1" parent="1" source="DNLyiLyBkiyhDNQC9Ltb-1" target="DNLyiLyBkiyhDNQC9Ltb-32">
          <mxGeometry relative="1" as="geometry">
            <Array as="points">
              <mxPoint x="320" y="110" />
              <mxPoint x="255" y="110" />
            </Array>
          </mxGeometry>
        </mxCell>
        <mxCell id="DNLyiLyBkiyhDNQC9Ltb-57" value="1-1" style="edgeLabel;html=1;align=center;verticalAlign=middle;resizable=0;points=[];" vertex="1" connectable="0" parent="DNLyiLyBkiyhDNQC9Ltb-38">
          <mxGeometry x="-0.1399" y="-2" relative="1" as="geometry">
            <mxPoint as="offset" />
          </mxGeometry>
        </mxCell>
        <mxCell id="DNLyiLyBkiyhDNQC9Ltb-39" style="edgeStyle=orthogonalEdgeStyle;rounded=0;orthogonalLoop=1;jettySize=auto;html=1;exitX=0.25;exitY=0;exitDx=0;exitDy=0;entryX=0.5;entryY=1;entryDx=0;entryDy=0;" edge="1" parent="1" source="DNLyiLyBkiyhDNQC9Ltb-1" target="DNLyiLyBkiyhDNQC9Ltb-33">
          <mxGeometry relative="1" as="geometry" />
        </mxCell>
        <mxCell id="DNLyiLyBkiyhDNQC9Ltb-58" value="1-1" style="edgeLabel;html=1;align=center;verticalAlign=middle;resizable=0;points=[];" vertex="1" connectable="0" parent="DNLyiLyBkiyhDNQC9Ltb-39">
          <mxGeometry x="-0.0533" y="-1" relative="1" as="geometry">
            <mxPoint as="offset" />
          </mxGeometry>
        </mxCell>
        <mxCell id="DNLyiLyBkiyhDNQC9Ltb-40" style="edgeStyle=orthogonalEdgeStyle;rounded=0;orthogonalLoop=1;jettySize=auto;html=1;exitX=0.5;exitY=0;exitDx=0;exitDy=0;entryX=0.5;entryY=1;entryDx=0;entryDy=0;" edge="1" parent="1" source="DNLyiLyBkiyhDNQC9Ltb-1" target="DNLyiLyBkiyhDNQC9Ltb-34">
          <mxGeometry relative="1" as="geometry" />
        </mxCell>
        <mxCell id="DNLyiLyBkiyhDNQC9Ltb-59" value="0-N" style="edgeLabel;html=1;align=center;verticalAlign=middle;resizable=0;points=[];" vertex="1" connectable="0" parent="DNLyiLyBkiyhDNQC9Ltb-40">
          <mxGeometry x="-0.1086" y="1" relative="1" as="geometry">
            <mxPoint as="offset" />
          </mxGeometry>
        </mxCell>
        <mxCell id="DNLyiLyBkiyhDNQC9Ltb-41" style="edgeStyle=orthogonalEdgeStyle;rounded=0;orthogonalLoop=1;jettySize=auto;html=1;exitX=0.75;exitY=0;exitDx=0;exitDy=0;entryX=0;entryY=1;entryDx=0;entryDy=0;" edge="1" parent="1" source="DNLyiLyBkiyhDNQC9Ltb-1" target="DNLyiLyBkiyhDNQC9Ltb-35">
          <mxGeometry relative="1" as="geometry" />
        </mxCell>
        <mxCell id="DNLyiLyBkiyhDNQC9Ltb-60" value="0-N" style="edgeLabel;html=1;align=center;verticalAlign=middle;resizable=0;points=[];" vertex="1" connectable="0" parent="DNLyiLyBkiyhDNQC9Ltb-41">
          <mxGeometry x="0.0791" relative="1" as="geometry">
            <mxPoint as="offset" />
          </mxGeometry>
        </mxCell>
        <mxCell id="DNLyiLyBkiyhDNQC9Ltb-42" style="edgeStyle=orthogonalEdgeStyle;rounded=0;orthogonalLoop=1;jettySize=auto;html=1;exitX=1;exitY=0.25;exitDx=0;exitDy=0;entryX=0.5;entryY=1;entryDx=0;entryDy=0;" edge="1" parent="1" source="DNLyiLyBkiyhDNQC9Ltb-1" target="DNLyiLyBkiyhDNQC9Ltb-36">
          <mxGeometry relative="1" as="geometry" />
        </mxCell>
        <mxCell id="DNLyiLyBkiyhDNQC9Ltb-61" value="1-1" style="edgeLabel;html=1;align=center;verticalAlign=middle;resizable=0;points=[];" vertex="1" connectable="0" parent="DNLyiLyBkiyhDNQC9Ltb-42">
          <mxGeometry x="-0.52" y="1" relative="1" as="geometry">
            <mxPoint as="offset" />
          </mxGeometry>
        </mxCell>
        <mxCell id="DNLyiLyBkiyhDNQC9Ltb-1" value="Deportista" style="rounded=0;whiteSpace=wrap;html=1;" vertex="1" parent="1">
          <mxGeometry x="320" y="120" width="120" height="60" as="geometry" />
        </mxCell>
        <mxCell id="DNLyiLyBkiyhDNQC9Ltb-47" style="edgeStyle=orthogonalEdgeStyle;rounded=0;orthogonalLoop=1;jettySize=auto;html=1;exitX=0.25;exitY=1;exitDx=0;exitDy=0;entryX=0.5;entryY=0;entryDx=0;entryDy=0;" edge="1" parent="1" source="DNLyiLyBkiyhDNQC9Ltb-2" target="DNLyiLyBkiyhDNQC9Ltb-43">
          <mxGeometry relative="1" as="geometry" />
        </mxCell>
        <mxCell id="DNLyiLyBkiyhDNQC9Ltb-48" style="edgeStyle=orthogonalEdgeStyle;rounded=0;orthogonalLoop=1;jettySize=auto;html=1;exitX=0.75;exitY=1;exitDx=0;exitDy=0;entryX=0.5;entryY=0;entryDx=0;entryDy=0;" edge="1" parent="1" source="DNLyiLyBkiyhDNQC9Ltb-2" target="DNLyiLyBkiyhDNQC9Ltb-44">
          <mxGeometry relative="1" as="geometry" />
        </mxCell>
        <mxCell id="DNLyiLyBkiyhDNQC9Ltb-67" value="0-N" style="edgeLabel;html=1;align=center;verticalAlign=middle;resizable=0;points=[];" vertex="1" connectable="0" parent="DNLyiLyBkiyhDNQC9Ltb-48">
          <mxGeometry x="-0.455" y="1" relative="1" as="geometry">
            <mxPoint as="offset" />
          </mxGeometry>
        </mxCell>
        <mxCell id="DNLyiLyBkiyhDNQC9Ltb-2" value="Deportes" style="rounded=0;whiteSpace=wrap;html=1;" vertex="1" parent="1">
          <mxGeometry x="320" y="490" width="120" height="60" as="geometry" />
        </mxCell>
        <mxCell id="DNLyiLyBkiyhDNQC9Ltb-18" style="edgeStyle=orthogonalEdgeStyle;rounded=0;orthogonalLoop=1;jettySize=auto;html=1;exitX=1;exitY=0.5;exitDx=0;exitDy=0;entryX=0;entryY=0.5;entryDx=0;entryDy=0;" edge="1" parent="1" source="DNLyiLyBkiyhDNQC9Ltb-3" target="DNLyiLyBkiyhDNQC9Ltb-17">
          <mxGeometry relative="1" as="geometry" />
        </mxCell>
        <mxCell id="DNLyiLyBkiyhDNQC9Ltb-3" value="Lesiones" style="rounded=0;whiteSpace=wrap;html=1;" vertex="1" parent="1">
          <mxGeometry x="570" y="310" width="120" height="60" as="geometry" />
        </mxCell>
        <mxCell id="DNLyiLyBkiyhDNQC9Ltb-4" value="Realiza" style="rhombus;whiteSpace=wrap;html=1;" vertex="1" parent="1">
          <mxGeometry x="340" y="290" width="80" height="80" as="geometry" />
        </mxCell>
        <mxCell id="DNLyiLyBkiyhDNQC9Ltb-5" value="" style="endArrow=none;html=1;rounded=0;entryX=0.5;entryY=1;entryDx=0;entryDy=0;exitX=0.5;exitY=0;exitDx=0;exitDy=0;" edge="1" parent="1" source="DNLyiLyBkiyhDNQC9Ltb-4" target="DNLyiLyBkiyhDNQC9Ltb-1">
          <mxGeometry width="50" height="50" relative="1" as="geometry">
            <mxPoint x="360" y="230" as="sourcePoint" />
            <mxPoint x="410" y="180" as="targetPoint" />
          </mxGeometry>
        </mxCell>
        <mxCell id="DNLyiLyBkiyhDNQC9Ltb-53" value="1-N" style="edgeLabel;html=1;align=center;verticalAlign=middle;resizable=0;points=[];" vertex="1" connectable="0" parent="DNLyiLyBkiyhDNQC9Ltb-5">
          <mxGeometry x="0.0036" relative="1" as="geometry">
            <mxPoint as="offset" />
          </mxGeometry>
        </mxCell>
        <mxCell id="DNLyiLyBkiyhDNQC9Ltb-6" value="" style="endArrow=none;html=1;rounded=0;entryX=0.5;entryY=0;entryDx=0;entryDy=0;" edge="1" parent="1" source="DNLyiLyBkiyhDNQC9Ltb-4" target="DNLyiLyBkiyhDNQC9Ltb-2">
          <mxGeometry width="50" height="50" relative="1" as="geometry">
            <mxPoint x="380" y="420" as="sourcePoint" />
            <mxPoint x="380" y="440.71067811865476" as="targetPoint" />
          </mxGeometry>
        </mxCell>
        <mxCell id="DNLyiLyBkiyhDNQC9Ltb-54" value="1-N" style="edgeLabel;html=1;align=center;verticalAlign=middle;resizable=0;points=[];" vertex="1" connectable="0" parent="DNLyiLyBkiyhDNQC9Ltb-6">
          <mxGeometry x="0.03" y="-1" relative="1" as="geometry">
            <mxPoint as="offset" />
          </mxGeometry>
        </mxCell>
        <mxCell id="DNLyiLyBkiyhDNQC9Ltb-21" style="edgeStyle=orthogonalEdgeStyle;rounded=0;orthogonalLoop=1;jettySize=auto;html=1;exitX=0.5;exitY=0;exitDx=0;exitDy=0;entryX=0;entryY=0.5;entryDx=0;entryDy=0;" edge="1" parent="1" source="DNLyiLyBkiyhDNQC9Ltb-7" target="DNLyiLyBkiyhDNQC9Ltb-19">
          <mxGeometry relative="1" as="geometry" />
        </mxCell>
        <mxCell id="DNLyiLyBkiyhDNQC9Ltb-62" value="1-1" style="edgeLabel;html=1;align=center;verticalAlign=middle;resizable=0;points=[];" vertex="1" connectable="0" parent="DNLyiLyBkiyhDNQC9Ltb-21">
          <mxGeometry x="-0.3371" y="-1" relative="1" as="geometry">
            <mxPoint as="offset" />
          </mxGeometry>
        </mxCell>
        <mxCell id="DNLyiLyBkiyhDNQC9Ltb-22" style="edgeStyle=orthogonalEdgeStyle;rounded=0;orthogonalLoop=1;jettySize=auto;html=1;exitX=1;exitY=0.5;exitDx=0;exitDy=0;entryX=0;entryY=0.5;entryDx=0;entryDy=0;" edge="1" parent="1" source="DNLyiLyBkiyhDNQC9Ltb-7" target="DNLyiLyBkiyhDNQC9Ltb-20">
          <mxGeometry relative="1" as="geometry" />
        </mxCell>
        <mxCell id="DNLyiLyBkiyhDNQC9Ltb-63" value="0-1" style="edgeLabel;html=1;align=center;verticalAlign=middle;resizable=0;points=[];" vertex="1" connectable="0" parent="DNLyiLyBkiyhDNQC9Ltb-22">
          <mxGeometry x="-0.152" y="-1" relative="1" as="geometry">
            <mxPoint as="offset" />
          </mxGeometry>
        </mxCell>
        <mxCell id="DNLyiLyBkiyhDNQC9Ltb-7" value="Tiene" style="rhombus;whiteSpace=wrap;html=1;" vertex="1" parent="1">
          <mxGeometry x="590" y="150" width="80" height="80" as="geometry" />
        </mxCell>
        <mxCell id="DNLyiLyBkiyhDNQC9Ltb-8" value="" style="endArrow=none;html=1;rounded=0;entryX=0.5;entryY=0;entryDx=0;entryDy=0;" edge="1" parent="1" source="DNLyiLyBkiyhDNQC9Ltb-1" target="DNLyiLyBkiyhDNQC9Ltb-7">
          <mxGeometry width="50" height="50" relative="1" as="geometry">
            <mxPoint x="440" y="200" as="sourcePoint" />
            <mxPoint x="510.71067811865476" y="150" as="targetPoint" />
          </mxGeometry>
        </mxCell>
        <mxCell id="DNLyiLyBkiyhDNQC9Ltb-49" value="0-N" style="edgeLabel;html=1;align=center;verticalAlign=middle;resizable=0;points=[];" vertex="1" connectable="0" parent="DNLyiLyBkiyhDNQC9Ltb-8">
          <mxGeometry x="0.0337" y="-3" relative="1" as="geometry">
            <mxPoint as="offset" />
          </mxGeometry>
        </mxCell>
        <mxCell id="DNLyiLyBkiyhDNQC9Ltb-9" value="" style="endArrow=none;html=1;rounded=0;entryX=0.5;entryY=0;entryDx=0;entryDy=0;" edge="1" parent="1" source="DNLyiLyBkiyhDNQC9Ltb-7" target="DNLyiLyBkiyhDNQC9Ltb-3">
          <mxGeometry width="50" height="50" relative="1" as="geometry">
            <mxPoint x="630" y="280" as="sourcePoint" />
            <mxPoint x="630" y="300.71067811865476" as="targetPoint" />
          </mxGeometry>
        </mxCell>
        <mxCell id="DNLyiLyBkiyhDNQC9Ltb-50" value="0-N" style="edgeLabel;html=1;align=center;verticalAlign=middle;resizable=0;points=[];" vertex="1" connectable="0" parent="DNLyiLyBkiyhDNQC9Ltb-9">
          <mxGeometry x="-0.005" y="-1" relative="1" as="geometry">
            <mxPoint as="offset" />
          </mxGeometry>
        </mxCell>
        <mxCell id="DNLyiLyBkiyhDNQC9Ltb-10" value="Posee" style="rhombus;whiteSpace=wrap;html=1;" vertex="1" parent="1">
          <mxGeometry x="590" y="480" width="80" height="80" as="geometry" />
        </mxCell>
        <mxCell id="DNLyiLyBkiyhDNQC9Ltb-11" value="" style="endArrow=none;html=1;rounded=0;entryX=0;entryY=0.5;entryDx=0;entryDy=0;" edge="1" parent="1" source="DNLyiLyBkiyhDNQC9Ltb-2" target="DNLyiLyBkiyhDNQC9Ltb-10">
          <mxGeometry width="50" height="50" relative="1" as="geometry">
            <mxPoint x="440" y="570" as="sourcePoint" />
            <mxPoint x="510.71067811865476" y="520" as="targetPoint" />
          </mxGeometry>
        </mxCell>
        <mxCell id="DNLyiLyBkiyhDNQC9Ltb-51" value="0-N" style="edgeLabel;html=1;align=center;verticalAlign=middle;resizable=0;points=[];" vertex="1" connectable="0" parent="DNLyiLyBkiyhDNQC9Ltb-11">
          <mxGeometry x="-0.1573" relative="1" as="geometry">
            <mxPoint as="offset" />
          </mxGeometry>
        </mxCell>
        <mxCell id="DNLyiLyBkiyhDNQC9Ltb-12" value="" style="endArrow=none;html=1;rounded=0;entryX=0.5;entryY=1;entryDx=0;entryDy=0;" edge="1" parent="1" source="DNLyiLyBkiyhDNQC9Ltb-10" target="DNLyiLyBkiyhDNQC9Ltb-3">
          <mxGeometry width="50" height="50" relative="1" as="geometry">
            <mxPoint x="610" y="459.28932188134524" as="sourcePoint" />
            <mxPoint x="610" y="409.28932188134524" as="targetPoint" />
          </mxGeometry>
        </mxCell>
        <mxCell id="DNLyiLyBkiyhDNQC9Ltb-52" value="0-N" style="edgeLabel;html=1;align=center;verticalAlign=middle;resizable=0;points=[];" vertex="1" connectable="0" parent="DNLyiLyBkiyhDNQC9Ltb-12">
          <mxGeometry x="0.1309" y="1" relative="1" as="geometry">
            <mxPoint as="offset" />
          </mxGeometry>
        </mxCell>
        <mxCell id="DNLyiLyBkiyhDNQC9Ltb-27" style="edgeStyle=orthogonalEdgeStyle;rounded=0;orthogonalLoop=1;jettySize=auto;html=1;exitX=0.75;exitY=0;exitDx=0;exitDy=0;entryX=0;entryY=0.5;entryDx=0;entryDy=0;" edge="1" parent="1" source="DNLyiLyBkiyhDNQC9Ltb-13" target="DNLyiLyBkiyhDNQC9Ltb-26">
          <mxGeometry relative="1" as="geometry" />
        </mxCell>
        <mxCell id="DNLyiLyBkiyhDNQC9Ltb-28" style="edgeStyle=orthogonalEdgeStyle;rounded=0;orthogonalLoop=1;jettySize=auto;html=1;exitX=1;exitY=0.25;exitDx=0;exitDy=0;entryX=0;entryY=0.5;entryDx=0;entryDy=0;" edge="1" parent="1" source="DNLyiLyBkiyhDNQC9Ltb-13" target="DNLyiLyBkiyhDNQC9Ltb-25">
          <mxGeometry relative="1" as="geometry" />
        </mxCell>
        <mxCell id="DNLyiLyBkiyhDNQC9Ltb-65" value="0-N" style="edgeLabel;html=1;align=center;verticalAlign=middle;resizable=0;points=[];" vertex="1" connectable="0" parent="DNLyiLyBkiyhDNQC9Ltb-28">
          <mxGeometry x="-0.2457" y="-3" relative="1" as="geometry">
            <mxPoint as="offset" />
          </mxGeometry>
        </mxCell>
        <mxCell id="DNLyiLyBkiyhDNQC9Ltb-29" style="edgeStyle=orthogonalEdgeStyle;rounded=0;orthogonalLoop=1;jettySize=auto;html=1;exitX=0.75;exitY=1;exitDx=0;exitDy=0;entryX=0;entryY=0.5;entryDx=0;entryDy=0;" edge="1" parent="1" source="DNLyiLyBkiyhDNQC9Ltb-13" target="DNLyiLyBkiyhDNQC9Ltb-23">
          <mxGeometry relative="1" as="geometry" />
        </mxCell>
        <mxCell id="DNLyiLyBkiyhDNQC9Ltb-66" value="1-1" style="edgeLabel;html=1;align=center;verticalAlign=middle;resizable=0;points=[];" vertex="1" connectable="0" parent="DNLyiLyBkiyhDNQC9Ltb-29">
          <mxGeometry x="-0.155" relative="1" as="geometry">
            <mxPoint as="offset" />
          </mxGeometry>
        </mxCell>
        <mxCell id="DNLyiLyBkiyhDNQC9Ltb-30" style="edgeStyle=orthogonalEdgeStyle;rounded=0;orthogonalLoop=1;jettySize=auto;html=1;exitX=0.5;exitY=0;exitDx=0;exitDy=0;entryX=0.5;entryY=1;entryDx=0;entryDy=0;" edge="1" parent="1" source="DNLyiLyBkiyhDNQC9Ltb-13" target="DNLyiLyBkiyhDNQC9Ltb-24">
          <mxGeometry relative="1" as="geometry" />
        </mxCell>
        <mxCell id="DNLyiLyBkiyhDNQC9Ltb-64" value="1-1" style="edgeLabel;html=1;align=center;verticalAlign=middle;resizable=0;points=[];" vertex="1" connectable="0" parent="DNLyiLyBkiyhDNQC9Ltb-30">
          <mxGeometry x="0.08" relative="1" as="geometry">
            <mxPoint as="offset" />
          </mxGeometry>
        </mxCell>
        <mxCell id="DNLyiLyBkiyhDNQC9Ltb-13" value="Representante" style="rounded=0;whiteSpace=wrap;html=1;" vertex="1" parent="1">
          <mxGeometry x="50" y="310" width="120" height="60" as="geometry" />
        </mxCell>
        <mxCell id="DNLyiLyBkiyhDNQC9Ltb-14" value="Tiene2" style="rhombus;whiteSpace=wrap;html=1;" vertex="1" parent="1">
          <mxGeometry x="70" y="480" width="80" height="80" as="geometry" />
        </mxCell>
        <mxCell id="DNLyiLyBkiyhDNQC9Ltb-15" value="" style="endArrow=none;html=1;rounded=0;entryX=0.5;entryY=1;entryDx=0;entryDy=0;" edge="1" parent="1" source="DNLyiLyBkiyhDNQC9Ltb-14" target="DNLyiLyBkiyhDNQC9Ltb-13">
          <mxGeometry width="50" height="50" relative="1" as="geometry">
            <mxPoint x="110" y="280" as="sourcePoint" />
            <mxPoint x="110" y="380" as="targetPoint" />
          </mxGeometry>
        </mxCell>
        <mxCell id="DNLyiLyBkiyhDNQC9Ltb-56" value="1-N" style="edgeLabel;html=1;align=center;verticalAlign=middle;resizable=0;points=[];" vertex="1" connectable="0" parent="DNLyiLyBkiyhDNQC9Ltb-15">
          <mxGeometry x="0.3491" relative="1" as="geometry">
            <mxPoint as="offset" />
          </mxGeometry>
        </mxCell>
        <mxCell id="DNLyiLyBkiyhDNQC9Ltb-16" value="" style="endArrow=none;html=1;rounded=0;exitX=0;exitY=0.5;exitDx=0;exitDy=0;entryX=1;entryY=0.5;entryDx=0;entryDy=0;" edge="1" parent="1" source="DNLyiLyBkiyhDNQC9Ltb-2" target="DNLyiLyBkiyhDNQC9Ltb-14">
          <mxGeometry width="50" height="50" relative="1" as="geometry">
            <mxPoint x="320" y="148" as="sourcePoint" />
            <mxPoint x="110" y="478" as="targetPoint" />
          </mxGeometry>
        </mxCell>
        <mxCell id="DNLyiLyBkiyhDNQC9Ltb-55" value="0-N" style="edgeLabel;html=1;align=center;verticalAlign=middle;resizable=0;points=[];" vertex="1" connectable="0" parent="DNLyiLyBkiyhDNQC9Ltb-16">
          <mxGeometry x="0.0094" y="-1" relative="1" as="geometry">
            <mxPoint as="offset" />
          </mxGeometry>
        </mxCell>
        <mxCell id="DNLyiLyBkiyhDNQC9Ltb-17" value="Tipo" style="ellipse;whiteSpace=wrap;html=1;align=center;fontStyle=4;" vertex="1" parent="1">
          <mxGeometry x="730" y="320" width="100" height="40" as="geometry" />
        </mxCell>
        <mxCell id="DNLyiLyBkiyhDNQC9Ltb-19" value="Fecha de Lesion" style="ellipse;whiteSpace=wrap;html=1;align=center;" vertex="1" parent="1">
          <mxGeometry x="650" y="80" width="100" height="40" as="geometry" />
        </mxCell>
        <mxCell id="DNLyiLyBkiyhDNQC9Ltb-20" value="Tiempo de Rehabilitacion" style="ellipse;whiteSpace=wrap;html=1;align=center;" vertex="1" parent="1">
          <mxGeometry x="720" y="170" width="100" height="40" as="geometry" />
        </mxCell>
        <mxCell id="DNLyiLyBkiyhDNQC9Ltb-23" value="Apellido" style="ellipse;whiteSpace=wrap;html=1;align=center;" vertex="1" parent="1">
          <mxGeometry x="160" y="410" width="100" height="40" as="geometry" />
        </mxCell>
        <mxCell id="DNLyiLyBkiyhDNQC9Ltb-24" value="Nombre" style="ellipse;whiteSpace=wrap;html=1;align=center;" vertex="1" parent="1">
          <mxGeometry x="20" y="190" width="100" height="40" as="geometry" />
        </mxCell>
        <mxCell id="DNLyiLyBkiyhDNQC9Ltb-25" value="Mail" style="ellipse;whiteSpace=wrap;html=1;align=center;" vertex="1" parent="1">
          <mxGeometry x="220" y="310" width="100" height="40" as="geometry" />
        </mxCell>
        <mxCell id="DNLyiLyBkiyhDNQC9Ltb-26" value="DNi" style="ellipse;whiteSpace=wrap;html=1;align=center;fontStyle=4;" vertex="1" parent="1">
          <mxGeometry x="180" y="220" width="100" height="40" as="geometry" />
        </mxCell>
        <mxCell id="DNLyiLyBkiyhDNQC9Ltb-31" value="DNi" style="ellipse;whiteSpace=wrap;html=1;align=center;fontStyle=4;" vertex="1" parent="1">
          <mxGeometry x="140" y="80" width="100" height="40" as="geometry" />
        </mxCell>
        <mxCell id="DNLyiLyBkiyhDNQC9Ltb-32" value="Apellido" style="ellipse;whiteSpace=wrap;html=1;align=center;" vertex="1" parent="1">
          <mxGeometry x="170" y="30" width="100" height="40" as="geometry" />
        </mxCell>
        <mxCell id="DNLyiLyBkiyhDNQC9Ltb-33" value="Nombre" style="ellipse;whiteSpace=wrap;html=1;align=center;" vertex="1" parent="1">
          <mxGeometry x="250" y="10" width="100" height="40" as="geometry" />
        </mxCell>
        <mxCell id="DNLyiLyBkiyhDNQC9Ltb-34" value="Mail" style="ellipse;whiteSpace=wrap;html=1;align=center;" vertex="1" parent="1">
          <mxGeometry x="330" y="10" width="100" height="40" as="geometry" />
        </mxCell>
        <mxCell id="DNLyiLyBkiyhDNQC9Ltb-35" value="Telefono" style="ellipse;whiteSpace=wrap;html=1;align=center;" vertex="1" parent="1">
          <mxGeometry x="420" y="10" width="100" height="40" as="geometry" />
        </mxCell>
        <mxCell id="DNLyiLyBkiyhDNQC9Ltb-36" value="Fecha de&amp;nbsp;&lt;br&gt;Ingreso" style="ellipse;whiteSpace=wrap;html=1;align=center;" vertex="1" parent="1">
          <mxGeometry x="460" y="60" width="100" height="40" as="geometry" />
        </mxCell>
        <mxCell id="DNLyiLyBkiyhDNQC9Ltb-43" value="Nombre" style="ellipse;whiteSpace=wrap;html=1;align=center;fontStyle=4;" vertex="1" parent="1">
          <mxGeometry x="220" y="610" width="100" height="40" as="geometry" />
        </mxCell>
        <mxCell id="DNLyiLyBkiyhDNQC9Ltb-44" value="Descripcion" style="ellipse;whiteSpace=wrap;html=1;align=center;" vertex="1" parent="1">
          <mxGeometry x="350" y="620" width="100" height="40" as="geometry" />
        </mxCell>
      </root>
    </mxGraphModel>
  </diagram>
</mxfile>
